# xmcd
#
# Track frame offsets:
#	182
#	14905
#	33712
#	54432
#	69055
#	84067
#	94037
#	110352
#	122447
#	136507
#	154027
#	165132
#	179770
#
# Disc length: 2449 seconds
#
# Revision: 1
# Processed by: cddbd v1.5.2PL0 Copyright (c) Steve Scherf et al.
# Submitted via: EasyCDDAExtractor 16.0.9.1
#
DISCID=94098f0d
DTITLE=Michal Tučný - Poslední kovboj
DYEAR=1982
DGENRE=Country
TTITLE0=Poslední kovboj
TTITLE1=Báječná ženská
TTITLE2=Modrá z džín
TTITLE3=Indián Banjo
TTITLE4=Zdám se ti lepší nežli jsem
TTITLE5=Děláme co můžeme
TTITLE6=Koukám, jak celá země vstává
TTITLE7=Pár rezavejch kolejí
TTITLE8=Noční pták
TTITLE9=Dík za ten stop
TTITLE10=Cesty toulavý
TTITLE11=Spím v obilí
TTITLE12=Poslední kovboj
EXTD=
EXTT0=
EXTT1=
EXTT2=
EXTT3=
EXTT4=
EXTT5=
EXTT6=
EXTT7=
EXTT8=
EXTT9=
EXTT10=
EXTT11=
EXTT12=
PLAYORDER=
